<svg width="200" height="60" viewBox="0 0 200 60" xmlns="http://www.w3.org/2000/svg">
  <!-- Pizza Icon -->
  <g transform="translate(10, 12) scale(0.038)">
    <path d="M386.061,241.082c-42.269-78.701-125.898-134.024-220.765-134.024c-94.894,0-178.618,55.445-220.765,134.024
      c-1.735,3.241-1.735,7.111,0,10.353c42.147,78.579,125.871,134.024,220.765,134.024c94.867,0,178.496-55.323,220.765-134.024
      C387.797,248.193,387.797,244.323,386.061,241.082z M165.226,338.379c-72.889,0-132.294-59.405-132.294-132.294
      S92.337,73.791,165.226,73.791s132.294,59.405,132.294,132.294S238.115,338.379,165.226,338.379z" fill="#DC3545"/>
    <path d="M174.735,150.21c-6.492-2.449-13.716-1.339-19.208,2.939c-5.491,4.278-8.43,10.963-7.833,17.748
      c0.474,5.247-3.278,9.93-8.526,10.403c-5.242,0.441-9.93-3.279-10.404-8.526c-1.306-14.7,5.069-29.099,16.914-38.401
      c11.845-9.304,27.594-11.845,41.929-6.776c5.002,1.79,7.603,7.273,5.814,12.275c-1.79,5.001-7.276,7.601-12.275,5.813
      C178.956,144.573,176.72,150.991,174.735,150.21z" fill="#DC3545"/>
    <path d="M110.763,219.41c-0.339-0.122-3.313-1.184-6.143-4.04c-2.848-2.866-3.887-5.858-4.012-6.195
      c-1.657-4.446-6.574-6.699-11.015-5.052c-4.444,1.652-6.707,6.57-5.054,11.015c0.574,1.543,2.705,6.765,7.772,11.845
      c5.085,5.106,10.318,7.252,11.854,7.837c4.414,1.669,9.34-0.55,11.014-4.972C117.427,226.007,115.181,221.081,110.763,219.41z" fill="#DC3545"/>
    <path d="M170.279,193.254c-6.494-2.44-13.712-1.325-19.203,2.949c-5.491,4.273-8.426,10.957-7.832,17.736
      c0.474,5.249-3.279,9.931-8.526,10.404c-5.253,0.457-9.93-3.279-10.404-8.526c-1.306-14.705,5.068-29.106,16.914-38.407
      c11.845-9.302,27.595-11.851,41.93-6.773c5,1.79,7.602,7.273,5.813,12.275C187.181,187.914,175.287,195.055,170.279,193.254z" fill="#DC3545"/>
  </g>
  
  <!-- Text "PizzaJobs" -->
  <text x="60" y="36" font-family="Arial, sans-serif" font-size="24" font-weight="bold" fill="#212529">
    Pizza<tspan fill="#DC3545">Jobs</tspan>
  </text>
  
  <!-- Tagline -->
  <text x="62" y="50" font-family="Arial, sans-serif" font-size="10" fill="#6C757D">
    JOIN OUR DELICIOUS TEAM
  </text>
</svg>
